<svg xmlns="http://www.w3.org/2000/svg" viewBox="0 0 720 430" role="img" aria-label="Media schedule dashboard preview">
  <defs>
    <linearGradient id="mediaBg" x1="0" x2="1" y1="0" y2="1">
      <stop stop-color="#f6fdff"/>
      <stop offset="1" stop-color="#e6f3ff"/>
    </linearGradient>
    <filter id="shadow" x="-20%" y="-20%" width="140%" height="140%">
      <feDropShadow dx="0" dy="22" stdDeviation="22" flood-color="#16415f" flood-opacity=".18"/>
    </filter>
  </defs>
  <rect x="42" y="42" width="636" height="346" rx="38" fill="url(#mediaBg)" filter="url(#shadow)"/>
  <rect x="96" y="92" width="528" height="246" rx="18" fill="#ffffff"/>
  <rect x="96" y="92" width="528" height="60" rx="18" fill="#19344d"/>
  <circle cx="122" cy="122" r="7" fill="#ef4b3f"/>
  <circle cx="145" cy="122" r="7" fill="#f4a261"/>
  <circle cx="168" cy="122" r="7" fill="#0f8b8d"/>
  <rect x="116" y="176" width="160" height="36" rx="10" fill="#eef6ff"/>
  <rect x="296" y="176" width="116" height="36" rx="10" fill="#e8f7f4"/>
  <rect x="432" y="176" width="150" height="36" rx="10" fill="#fff3e7"/>
  <rect x="116" y="236" width="466" height="14" rx="7" fill="#d8e5ef"/>
  <rect x="116" y="266" width="410" height="14" rx="7" fill="#d8e5ef"/>
  <rect x="116" y="296" width="338" height="14" rx="7" fill="#d8e5ef"/>
  <rect x="116" y="236" width="286" height="14" rx="7" fill="#0f8b8d"/>
  <rect x="116" y="266" width="214" height="14" rx="7" fill="#ef4b3f"/>
  <rect x="116" y="296" width="176" height="14" rx="7" fill="#f4a261"/>
</svg>
