<svg xmlns="http://www.w3.org/2000/svg" viewBox="0 0 1180 780" role="img" aria-label="TAG-mPRO reconciliation dashboard preview">
  <defs>
    <linearGradient id="screen" x1="0" y1="0" x2="1" y2="1">
      <stop offset="0" stop-color="#ffffff"/>
      <stop offset=".58" stop-color="#f6fbff"/>
      <stop offset="1" stop-color="#e7f4fb"/>
    </linearGradient>
    <linearGradient id="nav" x1="0" y1="0" x2="1" y2="0">
      <stop offset="0" stop-color="#17283a"/>
      <stop offset="1" stop-color="#204862"/>
    </linearGradient>
    <linearGradient id="accent" x1="0" y1="0" x2="1" y2="1">
      <stop offset="0" stop-color="#ef4b3f"/>
      <stop offset=".54" stop-color="#0f8b8d"/>
      <stop offset="1" stop-color="#17324d"/>
    </linearGradient>
    <linearGradient id="card" x1="0" y1="0" x2="1" y2="1">
      <stop offset="0" stop-color="#ffffff"/>
      <stop offset="1" stop-color="#f3f8fc"/>
    </linearGradient>
    <filter id="shadow" x="-18%" y="-18%" width="136%" height="136%">
      <feDropShadow dx="0" dy="26" stdDeviation="26" flood-color="#0b3555" flood-opacity=".18"/>
    </filter>
    <filter id="softShadow" x="-30%" y="-30%" width="160%" height="160%">
      <feDropShadow dx="0" dy="14" stdDeviation="16" flood-color="#0b3555" flood-opacity=".12"/>
    </filter>
  </defs>

  <rect width="1180" height="780" rx="46" fill="#edf8fb"/>
  <path d="M0 594c172-88 300-86 458-38 186 57 343 70 526-20 86-43 145-58 196-48v292H0z" fill="#dff7f1" opacity=".72"/>
  <path d="M134 114h900c28 0 50 22 50 50v474c0 28-22 50-50 50H134c-28 0-50-22-50-50V164c0-28 22-50 50-50z" fill="url(#screen)" filter="url(#shadow)"/>
  <path d="M134 114h900c28 0 50 22 50 50v70H84v-70c0-28 22-50 50-50z" fill="url(#nav)"/>

  <circle cx="140" cy="174" r="10" fill="#ef4b3f"/>
  <circle cx="174" cy="174" r="10" fill="#f4a261"/>
  <circle cx="208" cy="174" r="10" fill="#0f8b8d"/>
  <rect x="258" y="158" width="154" height="32" rx="16" fill="#ffffff" opacity=".12"/>
  <rect x="448" y="158" width="106" height="32" rx="16" fill="#ffffff" opacity=".1"/>
  <rect x="578" y="158" width="126" height="32" rx="16" fill="#ffffff" opacity=".1"/>
  <rect x="918" y="158" width="108" height="32" rx="16" fill="#0f8b8d"/>

  <g transform="translate(126 270)">
    <text x="0" y="-34" font-family="Segoe UI, Arial, sans-serif" font-size="26" font-weight="800" fill="#17324d">Reconciliation Control Center</text>
    <text x="0" y="-10" font-family="Segoe UI, Arial, sans-serif" font-size="14" font-weight="700" fill="#64748b">Campaign spend, invoices, monitoring and exceptions in one audited view.</text>
    <rect x="0" y="18" width="206" height="104" rx="16" fill="url(#card)" stroke="#d9e2ec"/>
    <rect x="232" y="18" width="206" height="104" rx="16" fill="url(#card)" stroke="#d9e2ec"/>
    <rect x="464" y="18" width="206" height="104" rx="16" fill="url(#card)" stroke="#d9e2ec"/>
    <rect x="696" y="18" width="206" height="104" rx="16" fill="url(#card)" stroke="#d9e2ec"/>
    <text x="26" y="58" font-family="Segoe UI, Arial, sans-serif" font-size="14" font-weight="800" fill="#64748b">Matched</text>
    <text x="26" y="96" font-family="Segoe UI, Arial, sans-serif" font-size="34" font-weight="900" fill="#0f8b8d">84%</text>
    <text x="258" y="58" font-family="Segoe UI, Arial, sans-serif" font-size="14" font-weight="800" fill="#64748b">Review Items</text>
    <text x="258" y="96" font-family="Segoe UI, Arial, sans-serif" font-size="34" font-weight="900" fill="#ef4b3f">17</text>
    <text x="490" y="58" font-family="Segoe UI, Arial, sans-serif" font-size="14" font-weight="800" fill="#64748b">Invoices</text>
    <text x="490" y="96" font-family="Segoe UI, Arial, sans-serif" font-size="34" font-weight="900" fill="#17324d">128</text>
    <text x="722" y="58" font-family="Segoe UI, Arial, sans-serif" font-size="14" font-weight="800" fill="#64748b">Exposure</text>
    <text x="722" y="96" font-family="Segoe UI, Arial, sans-serif" font-size="34" font-weight="900" fill="#17324d">2.4M</text>
  </g>

  <g transform="translate(126 444)" filter="url(#softShadow)">
    <rect x="0" y="0" width="902" height="164" rx="18" fill="#ffffff" stroke="#d9e2ec"/>
    <rect x="0" y="0" width="902" height="46" rx="18" fill="#f6f9fc"/>
    <path d="M0 46h902" stroke="#d9e2ec"/>
    <path d="M84 0v164M284 0v164M488 0v164M690 0v164" stroke="#d9e2ec"/>
    <rect x="24" y="17" width="34" height="12" rx="6" fill="#b9c7d6"/>
    <rect x="110" y="16" width="126" height="14" rx="7" fill="#8293a7"/>
    <rect x="310" y="16" width="118" height="14" rx="7" fill="#8293a7"/>
    <rect x="514" y="16" width="114" height="14" rx="7" fill="#8293a7"/>
    <rect x="716" y="16" width="126" height="14" rx="7" fill="#8293a7"/>
    <g fill="#f8fafc">
      <rect x="0" y="46" width="902" height="39"/>
      <rect x="0" y="124" width="902" height="40"/>
    </g>
    <g stroke="#d9e2ec">
      <path d="M0 85h902M0 124h902"/>
    </g>
    <circle cx="42" cy="66" r="9" fill="#dff7f1"/>
    <circle cx="42" cy="105" r="9" fill="#fff1d6"/>
    <circle cx="42" cy="144" r="9" fill="#dff7f1"/>
    <rect x="110" y="60" width="140" height="13" rx="7" fill="#0f8b8d"/>
    <rect x="110" y="99" width="156" height="13" rx="7" fill="#17324d" opacity=".72"/>
    <rect x="110" y="138" width="118" height="13" rx="7" fill="#0f8b8d"/>
    <rect x="310" y="60" width="96" height="13" rx="7" fill="#9fb0c2"/>
    <rect x="310" y="99" width="132" height="13" rx="7" fill="#9fb0c2"/>
    <rect x="310" y="138" width="112" height="13" rx="7" fill="#9fb0c2"/>
    <rect x="514" y="58" width="106" height="18" rx="9" fill="#dff7f1"/>
    <rect x="514" y="97" width="128" height="18" rx="9" fill="#fff1d6"/>
    <rect x="514" y="136" width="106" height="18" rx="9" fill="#dff7f1"/>
    <rect x="716" y="60" width="116" height="13" rx="7" fill="#9fb0c2"/>
    <rect x="716" y="99" width="92" height="13" rx="7" fill="#9fb0c2"/>
    <rect x="716" y="138" width="134" height="13" rx="7" fill="#9fb0c2"/>
  </g>

  <g transform="translate(826 282)" filter="url(#softShadow)">
    <rect width="188" height="128" rx="20" fill="#ffffff" stroke="#d9e2ec"/>
    <circle cx="74" cy="66" r="38" fill="none" stroke="#eef2f7" stroke-width="16"/>
    <path d="M74 28a38 38 0 0136 50" fill="none" stroke="#ef4b3f" stroke-width="16" stroke-linecap="round"/>
    <path d="M125 44l12 12 24-32" fill="none" stroke="#0f8b8d" stroke-width="7" stroke-linecap="round" stroke-linejoin="round"/>
    <text x="26" y="112" font-family="Segoe UI, Arial, sans-serif" font-size="13" font-weight="800" fill="#64748b">Exception focus</text>
  </g>
</svg>
