<svg xmlns="http://www.w3.org/2000/svg" viewBox="0 0 720 430" role="img" aria-label="Monitoring proof dashboard preview">
  <defs>
    <linearGradient id="monBg" x1="0" x2="1" y1="0" y2="1">
      <stop stop-color="#f5fffb"/>
      <stop offset="1" stop-color="#edf4ff"/>
    </linearGradient>
    <filter id="shadow" x="-20%" y="-20%" width="140%" height="140%">
      <feDropShadow dx="0" dy="22" stdDeviation="22" flood-color="#16415f" flood-opacity=".18"/>
    </filter>
  </defs>
  <rect x="42" y="42" width="636" height="346" rx="38" fill="url(#monBg)" filter="url(#shadow)"/>
  <rect x="96" y="86" width="528" height="258" rx="22" fill="#ffffff"/>
  <rect x="124" y="118" width="154" height="194" rx="18" fill="#19344d"/>
  <rect x="306" y="118" width="288" height="38" rx="12" fill="#eef6ff"/>
  <rect x="306" y="178" width="288" height="38" rx="12" fill="#e8f7f4"/>
  <rect x="306" y="238" width="288" height="38" rx="12" fill="#fff3e7"/>
  <circle cx="164" cy="162" r="18" fill="#0f8b8d"/>
  <rect x="196" y="152" width="54" height="12" rx="6" fill="#d8e5ef"/>
  <rect x="196" y="174" width="38" height="12" rx="6" fill="#9db0c2"/>
  <circle cx="164" cy="226" r="18" fill="#ef4b3f"/>
  <rect x="196" y="216" width="54" height="12" rx="6" fill="#d8e5ef"/>
  <rect x="196" y="238" width="38" height="12" rx="6" fill="#9db0c2"/>
  <path d="M326 136l16 16 32-34" fill="none" stroke="#0f8b8d" stroke-width="8" stroke-linecap="round" stroke-linejoin="round"/>
  <path d="M326 196l16 16 32-34" fill="none" stroke="#0f8b8d" stroke-width="8" stroke-linecap="round" stroke-linejoin="round"/>
  <path d="M326 256l16 16 32-34" fill="none" stroke="#0f8b8d" stroke-width="8" stroke-linecap="round" stroke-linejoin="round"/>
</svg>
