<svg xmlns="http://www.w3.org/2000/svg" viewBox="0 0 720 430" role="img" aria-label="Audit exceptions dashboard preview">
  <defs>
    <linearGradient id="auditBg" x1="0" x2="1" y1="0" y2="1">
      <stop stop-color="#fffafa"/>
      <stop offset="1" stop-color="#eef8fb"/>
    </linearGradient>
    <filter id="shadow" x="-20%" y="-20%" width="140%" height="140%">
      <feDropShadow dx="0" dy="22" stdDeviation="22" flood-color="#16415f" flood-opacity=".18"/>
    </filter>
  </defs>
  <rect x="42" y="42" width="636" height="346" rx="38" fill="url(#auditBg)" filter="url(#shadow)"/>
  <rect x="92" y="84" width="536" height="262" rx="22" fill="#ffffff"/>
  <rect x="120" y="116" width="176" height="90" rx="16" fill="#19344d"/>
  <text x="144" y="152" fill="#ffffff" font-family="Arial" font-size="18" font-weight="700">Exceptions</text>
  <text x="144" y="188" fill="#ef4b3f" font-family="Arial" font-size="38" font-weight="900">24</text>
  <circle cx="454" cy="168" r="54" fill="none" stroke="#d8e5ef" stroke-width="18"/>
  <path d="M454 114a54 54 0 0 1 50 74" fill="none" stroke="#0f8b8d" stroke-width="18" stroke-linecap="round"/>
  <path d="M454 114a54 54 0 0 0-38 16" fill="none" stroke="#ef4b3f" stroke-width="18" stroke-linecap="round"/>
  <rect x="120" y="236" width="480" height="18" rx="9" fill="#e7eef6"/>
  <rect x="120" y="272" width="420" height="18" rx="9" fill="#e7eef6"/>
  <rect x="120" y="308" width="360" height="18" rx="9" fill="#e7eef6"/>
  <rect x="120" y="236" width="72" height="18" rx="9" fill="#ef4b3f"/>
  <rect x="120" y="272" width="122" height="18" rx="9" fill="#f4a261"/>
  <rect x="120" y="308" width="190" height="18" rx="9" fill="#0f8b8d"/>
</svg>
