<svg xmlns="http://www.w3.org/2000/svg" viewBox="0 0 1100 760" role="img" aria-label="Marketing reconciliation dashboard illustration">
  <defs>
    <linearGradient id="page" x1="0" y1="0" x2="1" y2="1">
      <stop offset="0" stop-color="#f6fbff"/>
      <stop offset="1" stop-color="#dbeef8"/>
    </linearGradient>
    <linearGradient id="redBlue" x1="0" y1="0" x2="1" y2="1">
      <stop offset="0" stop-color="#ef1b2a"/>
      <stop offset="1" stop-color="#0b5d8f"/>
    </linearGradient>
    <linearGradient id="teal" x1="0" y1="0" x2="1" y2="1">
      <stop offset="0" stop-color="#0b746e"/>
      <stop offset="1" stop-color="#79d1cb"/>
    </linearGradient>
    <filter id="shadow" x="-20%" y="-20%" width="140%" height="140%">
      <feDropShadow dx="0" dy="24" stdDeviation="24" flood-color="#073a5a" flood-opacity=".18"/>
    </filter>
  </defs>
  <rect width="1100" height="760" rx="42" fill="url(#page)"/>
  <g opacity=".52">
    <path d="M120 190h860M120 310h860M120 430h860M120 550h860" stroke="#ffffff" stroke-width="3"/>
    <path d="M220 110v560M380 110v560M540 110v560M700 110v560M860 110v560" stroke="#ffffff" stroke-width="3"/>
  </g>
  <g filter="url(#shadow)">
    <rect x="134" y="112" width="832" height="536" rx="30" fill="#ffffff"/>
    <rect x="134" y="112" width="832" height="76" rx="30" fill="#151922"/>
    <circle cx="186" cy="151" r="9" fill="#ef1b2a"/>
    <circle cx="218" cy="151" r="9" fill="#f6bd3c"/>
    <circle cx="250" cy="151" r="9" fill="#0b746e"/>
    <rect x="770" y="139" width="142" height="24" rx="12" fill="#26303e"/>
    <rect x="178" y="232" width="188" height="132" rx="18" fill="#f7f9fc" stroke="#dce1e8"/>
    <rect x="402" y="232" width="188" height="132" rx="18" fill="#f7f9fc" stroke="#dce1e8"/>
    <rect x="626" y="232" width="188" height="132" rx="18" fill="#f7f9fc" stroke="#dce1e8"/>
    <path d="M202 318l44-46 38 28 50-62" fill="none" stroke="#0b5d8f" stroke-width="10" stroke-linecap="round" stroke-linejoin="round"/>
    <rect x="432" y="310" width="30" height="34" rx="7" fill="#ef1b2a"/>
    <rect x="480" y="276" width="30" height="68" rx="7" fill="#0b5d8f"/>
    <rect x="528" y="250" width="30" height="94" rx="7" fill="#0b746e"/>
    <circle cx="720" cy="298" r="50" fill="none" stroke="#e8edf3" stroke-width="18"/>
    <path d="M720 248a50 50 0 0148 64" fill="none" stroke="#ef1b2a" stroke-width="18" stroke-linecap="round"/>
    <rect x="178" y="410" width="636" height="32" rx="16" fill="#eef3f7"/>
    <rect x="178" y="468" width="692" height="28" rx="14" fill="#f7f9fc"/>
    <rect x="178" y="520" width="612" height="28" rx="14" fill="#f7f9fc"/>
    <rect x="178" y="572" width="730" height="28" rx="14" fill="#f7f9fc"/>
    <rect x="740" y="404" width="150" height="44" rx="16" fill="url(#redBlue)"/>
    <rect x="820" y="500" width="90" height="90" rx="22" fill="url(#teal)"/>
    <path d="M850 546l16 16 30-38" fill="none" stroke="#fff" stroke-width="9" stroke-linecap="round" stroke-linejoin="round"/>
  </g>
  <g opacity=".88">
    <rect x="76" y="468" width="190" height="116" rx="22" fill="#ffffff" filter="url(#shadow)"/>
    <path d="M110 538h34l28-42 30 64 22-32h22" fill="none" stroke="#ef1b2a" stroke-width="9" stroke-linecap="round" stroke-linejoin="round"/>
    <rect x="842" y="214" width="190" height="116" rx="22" fill="#ffffff" filter="url(#shadow)"/>
    <circle cx="898" cy="272" r="34" fill="#eef6fb"/>
    <path d="M884 274l13 13 28-34" fill="none" stroke="#0b746e" stroke-width="9" stroke-linecap="round" stroke-linejoin="round"/>
  </g>
</svg>
